<svg width="361" height="337" viewBox="0 0 361 337" fill="none" xmlns="http://www.w3.org/2000/svg">
<g clip-path="url(#clip0_520_1084)">
<path d="M275.085 80.084H273.233V29.3586C273.233 21.5722 270.138 14.1047 264.63 8.59894C259.122 3.09313 251.65 0 243.86 0H136.343C128.553 0 121.082 3.09313 115.574 8.59894C110.065 14.1047 106.971 21.5722 106.971 29.3586V307.641C106.971 315.428 110.065 322.895 115.574 328.401C121.082 333.907 128.553 337 136.343 337H243.862C251.652 337 259.124 333.907 264.632 328.401C270.14 322.895 273.235 315.428 273.235 307.641V116.191H275.085V80.084Z" fill="#3F3D56"/>
<path d="M267.246 27.3941V309.607C267.246 315.511 264.899 321.172 260.723 325.347C256.547 329.522 250.884 331.868 244.978 331.871H135.249C129.34 331.871 123.673 329.526 119.494 325.35C115.315 321.175 112.967 315.511 112.966 309.605V27.3941C112.968 21.4886 115.316 15.8256 119.495 11.6506C123.674 7.47567 129.341 5.13064 135.249 5.1313H148.559C147.906 6.7378 147.657 8.48015 147.835 10.2052C148.013 11.9303 148.612 13.5853 149.58 15.0247C150.548 16.4641 151.854 17.6439 153.385 18.4603C154.916 19.2768 156.624 19.7049 158.359 19.707H220.916C222.651 19.7047 224.359 19.2763 225.89 18.4596C227.42 17.643 228.727 16.4629 229.694 15.0233C230.662 13.5837 231.261 11.9285 231.438 10.2033C231.616 8.47815 231.367 6.73576 230.713 5.12932H244.971C250.877 5.13037 256.541 7.47563 260.718 11.6495C264.895 15.8234 267.242 21.4843 267.244 27.3876L267.246 27.3941Z" fill="#E6E6E6"/>
<path d="M255.555 317.139H124.658C123.54 317.138 122.469 316.694 121.679 315.904C120.889 315.114 120.444 314.044 120.443 312.927V37.8756C120.444 36.7588 120.889 35.688 121.679 34.8983C122.469 34.1086 123.54 33.6644 124.658 33.6631H255.555C256.672 33.6644 257.744 34.1086 258.534 34.8983C259.324 35.688 259.768 36.7588 259.769 37.8756V312.927C259.768 314.044 259.324 315.114 258.534 315.904C257.744 316.694 256.672 317.138 255.555 317.139Z" fill="white"/>
<path d="M189.61 126.527C209.528 126.527 225.675 110.388 225.675 90.4798C225.675 70.5715 209.528 54.4327 189.61 54.4327C169.693 54.4327 153.546 70.5715 153.546 90.4798C153.546 110.388 169.693 126.527 189.61 126.527Z" fill="#E6E6E6"/>
<path d="M189.115 121.647C206.336 121.647 220.296 107.693 220.296 90.4798C220.296 73.2667 206.336 59.3128 189.115 59.3128C171.893 59.3128 157.933 73.2667 157.933 90.4798C157.933 107.693 171.893 121.647 189.115 121.647Z" fill="white"/>
<path d="M189.809 72.8022C186.293 72.8022 182.855 73.8443 179.932 75.7969C177.008 77.7495 174.729 80.5247 173.384 83.7717C172.038 87.0187 171.686 90.5917 172.372 94.0387C173.058 97.4857 174.751 100.652 177.238 103.137C179.724 105.622 182.892 107.315 186.34 108C189.789 108.686 193.364 108.334 196.612 106.989C199.861 105.644 202.637 103.367 204.591 100.444C206.544 97.5221 207.587 94.0865 207.587 90.5719C207.587 85.8591 205.714 81.3393 202.38 78.0068C199.046 74.6743 194.524 72.8022 189.809 72.8022ZM189.809 78.1332C190.864 78.1332 191.895 78.4459 192.772 79.0316C193.649 79.6174 194.333 80.45 194.736 81.4241C195.14 82.3982 195.246 83.4701 195.04 84.5043C194.834 85.5384 194.326 86.4883 193.58 87.2338C192.834 87.9794 191.884 88.4871 190.849 88.6928C189.815 88.8985 188.742 88.793 187.768 88.3895C186.793 87.986 185.96 87.3027 185.374 86.426C184.788 85.5493 184.475 84.5186 184.475 83.4642C184.475 82.7641 184.613 82.0709 184.881 81.4241C185.149 80.7773 185.542 80.1896 186.037 79.6946C186.533 79.1996 187.121 78.8069 187.768 78.539C188.415 78.2711 189.108 78.1332 189.809 78.1332ZM189.809 103.797C187.702 103.787 185.629 103.264 183.77 102.272C181.911 101.281 180.323 99.851 179.142 98.1069C179.227 94.553 186.253 92.5964 189.809 92.5964C193.365 92.5964 200.39 94.553 200.476 98.1069C199.294 99.85 197.705 101.279 195.846 102.271C193.988 103.262 191.916 103.787 189.809 103.798V103.797Z" fill="#6C63FF"/>
<path d="M219.374 138.64H156.98V143.328H219.374V138.64Z" fill="#E6E6E6"/>
<path d="M227.155 150.821H148.632V155.508H227.155V150.821Z" fill="#E6E6E6"/>
<path d="M245.414 185.807H134.799V296.37H245.414V185.807Z" fill="#E6E6E6"/>
<path d="M242.492 188.146H136.557V294.031H242.492V188.146Z" fill="white"/>
<path d="M199.61 198.367H158.374V201.465H199.61V198.367Z" fill="#E6E6E6"/>
<path d="M222.052 207.462H158.374V210.56H222.052V207.462Z" fill="#6C63FF"/>
<path d="M210.932 216.124H159.035V219.221H210.932V216.124Z" fill="#E6E6E6"/>
<path d="M188.67 225.627H158.374V228.725H188.67V225.627Z" fill="#E6E6E6"/>
<path d="M204.098 234.91H158.374V238.008H204.098V234.91Z" fill="#6C63FF"/>
<path d="M199.61 244.251H158.374V247.349H199.61V244.251Z" fill="#E6E6E6"/>
<path d="M222.052 253.345H158.374V256.443H222.052V253.345Z" fill="#6C63FF"/>
<path d="M210.932 262.007H159.035V265.104H210.932V262.007Z" fill="#E6E6E6"/>
<path d="M188.67 271.51H158.374V274.608H188.67V271.51Z" fill="#E6E6E6"/>
<path d="M204.098 280.793H158.374V283.891H204.098V280.793Z" fill="#E6E6E6"/>
<path d="M343.491 240.373C343.196 240.889 342.802 241.341 342.332 241.705C341.862 242.069 341.324 242.336 340.751 242.493C340.177 242.649 339.579 242.69 338.989 242.615C338.399 242.54 337.83 242.35 337.314 242.055C336.798 241.76 336.345 241.366 335.981 240.896C335.617 240.427 335.349 239.89 335.193 239.316C335.037 238.743 334.995 238.145 335.07 237.555C335.145 236.966 335.336 236.397 335.631 235.881C335.641 235.863 335.651 235.846 335.662 235.828C335.788 235.616 335.931 235.414 336.088 235.224L332.28 208.095L332.166 207.282L331.393 201.747L331.279 200.949L331.7 200.969L339.078 201.306L341.056 201.395L341.304 206.445L342.707 234.837C343.44 235.538 343.916 236.465 344.058 237.469C344.2 238.473 344 239.496 343.491 240.373Z" fill="#FFB8B8"/>
<path d="M332.188 207.528L341.556 206.669C342.042 206.623 342.49 206.387 342.803 206.012C343.115 205.638 343.267 205.155 343.224 204.669L341.489 185.196C341.406 184.267 341.141 183.364 340.709 182.538C340.277 181.712 339.686 180.979 338.97 180.381C338.255 179.783 337.428 179.331 336.538 179.052C335.648 178.774 334.712 178.673 333.782 178.756C332.853 178.839 331.95 179.104 331.123 179.536C330.296 179.968 329.563 180.558 328.965 181.273C328.366 181.989 327.915 182.815 327.636 183.704C327.357 184.594 327.256 185.53 327.339 186.459C327.351 186.593 327.367 186.727 327.386 186.86L330.196 205.96C330.26 206.397 330.48 206.797 330.815 207.087C331.149 207.376 331.577 207.535 332.019 207.536C332.076 207.537 332.132 207.534 332.188 207.528Z" fill="#6C63FF"/>
<path d="M339.289 191.797C340.237 189.114 340.281 186.195 339.414 183.485C338.548 180.775 336.818 178.423 334.49 176.786C330.957 174.37 326.123 173.503 320.917 179.698C310.505 192.088 307.778 205.716 307.778 205.716L329.098 209.186C329.098 209.186 336.348 200.327 339.289 191.797Z" fill="#6C63FF"/>
<path d="M304.806 331.357H298.727L295.836 307.922H304.807L304.806 331.357Z" fill="#FFB8B8"/>
<path d="M287.006 336.998H306.11V329.621H294.387C292.429 329.621 290.552 330.398 289.167 331.782C287.783 333.165 287.006 335.042 287.006 336.998Z" fill="#2F2E41"/>
<path d="M354.782 326.058L349.011 327.965L338.906 306.621L347.424 303.807L354.782 326.058Z" fill="#FFB8B8"/>
<path d="M339.651 336.998L357.79 331.006L355.474 324.001L344.343 327.678C343.423 327.982 342.571 328.464 341.837 329.097C341.103 329.73 340.501 330.501 340.066 331.367C339.63 332.232 339.369 333.175 339.298 334.141C339.227 335.108 339.347 336.079 339.651 336.998Z" fill="#2F2E41"/>
<path d="M325.905 170.642C332.631 170.642 338.083 165.192 338.083 158.47C338.083 151.747 332.631 146.297 325.905 146.297C319.18 146.297 313.727 151.747 313.727 158.47C313.727 165.192 319.18 170.642 325.905 170.642Z" fill="#FFB8B8"/>
<path d="M315.243 324.834L320.888 287.593C320.948 287.195 321.144 286.831 321.443 286.563C321.743 286.294 322.126 286.137 322.528 286.12C322.929 286.102 323.325 286.225 323.646 286.466C323.968 286.708 324.195 287.054 324.29 287.444L332.887 322.934C333.022 323.478 333.356 323.951 333.823 324.262C334.289 324.572 334.855 324.697 335.409 324.612L359.122 320.803C359.436 320.752 359.736 320.635 360.002 320.459C360.267 320.283 360.492 320.052 360.661 319.782C360.829 319.513 360.938 319.21 360.98 318.894C361.022 318.579 360.996 318.258 360.904 317.953L329.983 216.06C329.896 215.771 329.885 215.463 329.953 215.168L330.983 210.708C331.096 210.224 331.043 209.717 330.834 209.267C330.625 208.816 330.271 208.449 329.829 208.223C325.618 206.076 314.954 201.611 306.906 206.501C306.645 206.661 306.419 206.871 306.242 207.121C306.065 207.37 305.94 207.653 305.876 207.952L281.721 321.427C281.655 321.735 281.656 322.054 281.723 322.363C281.789 322.671 281.921 322.962 282.108 323.215C282.296 323.469 282.535 323.68 282.81 323.835C283.085 323.99 283.39 324.084 283.704 324.112L312.837 326.72C312.904 326.726 312.97 326.729 313.036 326.729C313.569 326.728 314.085 326.536 314.489 326.189C314.894 325.841 315.16 325.36 315.241 324.833L315.243 324.834Z" fill="#2F2E41"/>
<path d="M333.98 149.87C333.062 149.318 332.248 148.61 331.573 147.778C331.24 147.358 331.021 146.859 330.937 146.33C330.852 145.8 330.906 145.258 331.092 144.755C331.707 143.398 333.536 142.971 334.953 143.431C336.37 143.892 337.464 145.003 338.499 146.074C339.411 147.016 340.349 148.003 340.78 149.242C341.211 150.48 340.99 152.051 339.914 152.803C338.858 153.54 337.34 153.238 336.325 152.446C335.309 151.654 334.68 150.479 334.081 149.339L333.98 149.87Z" fill="#2F2E41"/>
<path d="M338.105 146.401C338.172 142.972 342.084 140.512 345.462 141.121C348.84 141.729 351.436 144.607 352.735 147.782C355.481 154.489 353.42 162.143 350.774 168.894C348.129 175.644 344.854 182.492 345.24 189.73C345.502 193.642 346.815 197.41 349.042 200.638C351.269 203.865 354.326 206.432 357.891 208.066C354.08 209.794 349.523 208.009 346.319 205.317C339.205 199.338 336.459 188.692 339.794 180.02C341.438 175.743 344.337 172.083 346.6 168.098C348.863 164.113 350.523 159.417 349.355 154.986C348.186 150.555 343.214 146.967 338.963 148.682L338.105 146.401Z" fill="#2F2E41"/>
<path d="M325.175 163.871C326.237 162.078 327.307 159.724 325.367 158.156C324.945 157.831 324.463 157.593 323.948 157.457C323.432 157.321 322.895 157.289 322.368 157.363C320.18 157.627 317.798 157.736 315.68 156.941C314.886 156.668 314.155 156.238 313.53 155.677C312.905 155.116 312.399 154.435 312.043 153.675C310.952 151.086 312.319 147.94 314.604 146.303C316.002 145.339 317.654 144.808 319.353 144.778C321.051 144.748 322.721 145.22 324.153 146.134C327.113 144.828 330.704 145.409 333.393 147.208C336.083 149.007 337.923 151.888 338.922 154.964C339.843 157.612 340.002 160.465 339.38 163.198C338.88 165.1 337.928 166.853 336.606 168.309C335.284 169.765 333.631 170.881 331.786 171.563C331.067 171.846 330.287 171.936 329.522 171.823C328.758 171.71 328.037 171.398 327.431 170.919C327.431 170.919 325.753 169.454 325.228 167.69C324.824 166.334 324.608 164.829 325.175 163.871Z" fill="#2F2E41"/>
<path d="M289.048 174.732C289.109 175 289.149 175.271 289.167 175.545L310.466 187.827L315.643 184.848L321.162 192.069L312.51 198.234C311.811 198.732 310.969 198.99 310.11 198.969C309.252 198.948 308.424 198.649 307.75 198.118L285.785 180.799C284.793 181.166 283.714 181.222 282.689 180.961C281.665 180.7 280.744 180.133 280.05 179.336C279.355 178.539 278.921 177.549 278.803 176.499C278.685 175.449 278.89 174.387 279.39 173.456C279.891 172.525 280.663 171.769 281.604 171.287C282.545 170.806 283.611 170.622 284.659 170.76C285.707 170.899 286.688 171.353 287.472 172.063C288.255 172.772 288.804 173.703 289.045 174.732H289.048Z" fill="#FFB8B8"/>
<path d="M311.178 188.408L318.062 197.326C318.258 197.58 318.506 197.788 318.79 197.937C319.074 198.086 319.386 198.172 319.706 198.19C320.026 198.207 320.346 198.156 320.644 198.038C320.942 197.921 321.212 197.741 321.434 197.511L329.227 189.422C330.546 188.442 331.42 186.977 331.659 185.352C331.897 183.726 331.48 182.072 330.499 180.754C329.517 179.436 328.052 178.562 326.426 178.324C324.8 178.085 323.145 178.502 321.826 179.483C321.759 179.533 321.693 179.585 321.627 179.638L311.854 185.1C311.574 185.256 311.331 185.471 311.142 185.73C310.953 185.989 310.822 186.285 310.757 186.599C310.693 186.913 310.697 187.237 310.77 187.55C310.842 187.862 310.981 188.155 311.177 188.409L311.178 188.408Z" fill="#6C63FF"/>
<path d="M61.334 209.662C61.0908 209.773 60.8568 209.903 60.6344 210.052L38.3957 200.565L37.6024 194.709L28.7163 194.655L29.2414 208.085L58.5941 215.845C58.6559 216.049 58.7301 216.249 58.8162 216.444C59.2406 217.349 59.9231 218.109 60.7781 218.627C61.633 219.146 62.6222 219.401 63.6214 219.359C64.6207 219.318 65.5854 218.982 66.3945 218.395C67.2035 217.807 67.8209 216.994 68.1689 216.057C68.5169 215.119 68.5802 214.1 68.3507 213.127C68.1212 212.155 67.6092 211.271 66.8791 210.588C66.1489 209.905 65.233 209.453 64.2466 209.288C63.2601 209.124 62.247 209.254 61.3345 209.663L61.334 209.662Z" fill="#A0616A"/>
<path d="M25.4845 331.358H31.5633L34.4549 307.922H25.4835L25.4845 331.358Z" fill="#A0616A"/>
<path d="M35.9052 329.622H24.182V336.997H43.2865C43.2865 335.04 42.5089 333.164 41.1246 331.78C39.7403 330.396 37.8629 329.619 35.9052 329.619V329.622Z" fill="#2F2E41"/>
<path d="M1.84363 329.641L7.89268 330.236L13.0696 307.197L4.14127 306.32L1.84363 329.641Z" fill="#A0616A"/>
<path d="M12.388 328.936L0.723368 327.787L0 335.128L19.0085 336.999C19.1035 336.035 19.0076 335.062 18.7263 334.135C18.445 333.208 17.9837 332.346 17.3689 331.597C16.7541 330.848 15.9977 330.228 15.143 329.771C14.2883 329.314 13.3525 329.031 12.388 328.936Z" fill="#2F2E41"/>
<path d="M23.7923 169.853C30.5179 169.853 35.9702 164.403 35.9702 157.681C35.9702 150.958 30.5179 145.508 23.7923 145.508C17.0666 145.508 11.6143 150.958 11.6143 157.681C11.6143 164.403 17.0666 169.853 23.7923 169.853Z" fill="#A0616A"/>
<path d="M32.9219 326.618C33.4444 326.62 33.9507 326.436 34.3512 326.101C34.7517 325.765 35.0208 325.299 35.1109 324.785C38.2549 307.331 48.5418 250.248 48.7877 248.666C48.7932 248.63 48.7959 248.593 48.7956 248.556V244.3C48.7961 244.145 48.7477 243.994 48.6573 243.868L47.2987 241.966C47.2342 241.874 47.1495 241.799 47.0511 241.745C46.9528 241.691 46.8435 241.661 46.7315 241.656C38.9858 241.293 13.6185 240.229 12.3928 241.759C11.1621 243.296 11.5995 247.958 11.6986 248.876L11.6937 248.972L0.297172 321.823C0.2079 322.404 0.351128 322.997 0.69586 323.473C1.04059 323.95 1.55909 324.271 2.13915 324.368L9.25719 325.54C9.78732 325.625 10.3304 325.517 10.7876 325.236C11.2449 324.955 11.5859 324.519 11.7487 324.007C13.9502 316.976 21.3325 293.321 23.8909 284.168C23.9073 284.111 23.944 284.061 23.9942 284.028C24.0445 283.996 24.1048 283.982 24.1642 283.991C24.2235 283.999 24.2778 284.029 24.317 284.074C24.3562 284.119 24.3776 284.177 24.3773 284.237C24.2494 292.963 23.9405 315.223 23.8319 322.911L23.8205 323.74C23.8158 324.3 24.0217 324.842 24.3974 325.258C24.7732 325.675 25.2915 325.935 25.8499 325.988L32.7136 326.609C32.7828 326.616 32.8523 326.619 32.9219 326.618Z" fill="#2F2E41"/>
<path d="M31.5212 174.639C33.6463 175.902 34.918 178.222 35.6479 180.586C36.9989 184.958 37.8121 189.478 38.0695 194.046L38.841 207.724L48.3881 243.986C40.1133 250.984 35.3405 249.394 24.2013 243.669C13.0621 237.945 11.7899 245.578 11.7899 245.578L9.56263 214.724L6.38043 181.008C7.09486 180.148 7.90348 179.371 8.79112 178.692C11.7325 176.405 15.1547 174.815 18.7999 174.043C22.4451 173.27 26.2182 173.335 29.8349 174.231L31.5212 174.639Z" fill="#E6E6E6"/>
<path d="M34.622 216.985C34.3654 217.081 34.1167 217.197 33.8783 217.332L11.8885 206.33L11.5236 200.37L2.45301 199.745L1.9671 213.331L31.3526 223.044C31.5923 224.073 32.1399 225.005 32.9225 225.716C33.7051 226.426 34.6856 226.882 35.7336 227.022C36.7816 227.162 37.8473 226.979 38.7891 226.499C39.7309 226.019 40.504 225.263 41.0057 224.333C41.5073 223.403 41.7137 222.342 41.5973 221.292C41.481 220.241 41.0474 219.251 40.3544 218.453C39.6613 217.655 38.7415 217.087 37.7174 216.824C36.6933 216.561 35.6135 216.616 34.6215 216.982L34.622 216.985Z" fill="#A0616A"/>
<path d="M6.53909 181.16C1.12916 183.068 0.17569 203.745 0.17569 203.745C6.54057 200.247 14.1782 205.972 14.1782 205.972C14.1782 205.972 15.7693 200.564 17.6787 193.567C18.2553 191.598 18.3243 189.516 17.8792 187.514C17.4341 185.512 16.4895 183.655 15.1332 182.116C15.1332 182.116 11.9495 179.25 6.53909 181.16Z" fill="#E6E6E6"/>
<path d="M12.8752 160.9C14.3924 159.687 16.4625 161.891 16.4625 161.891L17.6763 150.973C17.6763 150.973 25.2624 151.881 30.1184 150.67C34.9745 149.458 35.7327 155.068 35.7327 155.068C35.983 152.802 36.0338 150.518 35.8844 148.243C35.5809 145.513 31.6362 142.783 24.6565 140.963C17.6768 139.144 14.0354 147.03 14.0354 147.03C9.17739 149.456 11.356 162.113 12.8752 160.9Z" fill="#2F2E41"/>
</g>
<defs>
<clipPath id="clip0_520_1084">
<rect width="361" height="337" fill="white"/>
</clipPath>
</defs>
</svg>
